<?xml version="1.0" encoding="utf-8"?>
<!-- Generator: Adobe Illustrator 16.0.0, SVG Export Plug-In . SVG Version: 6.00 Build 0)  -->
<!DOCTYPE svg PUBLIC "-//W3C//DTD SVG 1.1//EN" "http://www.w3.org/Graphics/SVG/1.1/DTD/svg11.dtd">
<svg version="1.1" id="Layer_1" xmlns="http://www.w3.org/2000/svg" xmlns:xlink="http://www.w3.org/1999/xlink" x="0px" y="0px"
	 width="100px" height="100px" viewBox="0 0 100 100" enable-background="new 0 0 100 100" xml:space="preserve">
<g id="Captions">
</g>
<g id="Your_Icon">
	<path d="M53.253,26.431c0-12.958-10.542-23.5-23.5-23.5c-12.958,0-23.5,10.542-23.5,23.5c0,12.959,10.542,23.5,23.5,23.5
		c1.413,0,2.56-1.146,2.56-2.56c0-1.413-1.146-2.56-2.56-2.56c-10.136,0-18.381-8.244-18.381-18.381
		c0-10.135,8.245-18.381,18.381-18.381s18.38,8.245,18.38,18.381c0,2.878-0.645,5.627-1.916,8.177
		c-0.016,0.025-0.035,0.048-0.051,0.074c-0.553,0.879-1.502,1.404-2.54,1.404c-1.653,0-2.998-1.344-2.998-2.999l-0.013-16.142
		c-0.001-1.413-1.147-2.557-2.559-2.557c0,0-0.002,0-0.002,0c-1.306,0.001-2.381,0.981-2.536,2.246
		c-1.98-1.411-4.399-2.245-7.01-2.245c-6.678,0-12.11,5.433-12.11,12.11c0,6.677,5.433,12.11,12.11,12.11
		c2.846,0,5.463-0.99,7.533-2.638c1.165,3.055,4.125,5.233,7.586,5.233c2.673,0,5.128-1.288,6.648-3.465
		c0.137-0.155,0.26-0.327,0.359-0.519C52.348,33.911,53.253,30.18,53.253,26.431z M28.508,33.492c-3.855,0-6.992-3.136-6.992-6.992
		s3.137-6.992,6.992-6.992S35.5,22.645,35.5,26.5C35.5,30.355,32.363,33.492,28.508,33.492z"/>
</g>
<g id="twitter">
	<path d="M94,59.581c0.327-1.106-0.047-2.302-0.953-3.022c-0.514-0.41-1.136-0.617-1.767-0.617c-0.498,0-0.996,0.13-1.443,0.396
		c-0.888,0.521-1.816,0.939-2.787,1.234c-1.854-1.418-4.152-2.207-6.516-2.207c-5.416,0-9.903,4.04-10.61,9.264
		c-4.318-0.924-8.252-3.303-11.086-6.779c-0.539-0.666-1.35-1.045-2.195-1.045c-0.071,0-0.146,0.004-0.223,0.01
		c-0.928,0.072-1.757,0.596-2.226,1.397c-0.952,1.631-1.453,3.491-1.453,5.386c0,1.28,0.228,2.525,0.647,3.688
		c-0.453,0.514-0.715,1.18-0.715,1.884c0,2.809,1.061,5.39,2.826,7.33c-0.109,0.483-0.092,0.996,0.066,1.485
		c0.611,1.914,1.729,3.562,3.176,4.818c-0.939,0.213-1.911,0.322-2.896,0.322c-0.512,0-1.029-0.033-1.55-0.092
		c-0.11-0.014-0.22-0.021-0.331-0.021c-1.187,0-2.261,0.742-2.664,1.885c-0.447,1.24,0.026,2.627,1.135,3.341
		c4.07,2.606,8.774,3.985,13.602,3.985c15.655,0,25.063-12.6,25.231-24.898c1.274-1.085,2.395-2.334,3.345-3.728
		c0.358-0.475,0.571-1.063,0.571-1.709C95.185,60.939,94.718,60.098,94,59.581z M88.412,65.966c0.019,0.337,0.024,0.677,0.024,1.019
		c0,10.403-7.918,22.399-22.399,22.399c-4.445,0-8.584-1.303-12.07-3.537c0.613,0.068,1.243,0.111,1.879,0.111
		c3.688,0,7.082-1.26,9.778-3.373c-3.448-0.061-6.354-2.34-7.356-5.467c0.48,0.092,0.975,0.143,1.478,0.143
		c0.72,0,1.416-0.098,2.075-0.277c-3.602-0.727-6.317-3.904-6.317-7.722c0-0.035,0-0.065,0-0.099
		c1.062,0.588,2.277,0.942,3.567,0.981c-2.112-1.412-3.5-3.823-3.5-6.554c0-1.442,0.388-2.793,1.066-3.956
		c3.879,4.764,9.683,7.896,16.227,8.225c-0.137-0.574-0.202-1.178-0.202-1.795c0-4.344,3.523-7.869,7.87-7.869
		c2.266,0,4.313,0.955,5.749,2.482c1.791-0.351,3.479-1.006,4.999-1.908c-0.589,1.836-1.839,3.379-3.461,4.354
		c1.591-0.188,3.106-0.611,4.52-1.24C91.285,63.471,89.952,64.855,88.412,65.966z"/>
</g>
</svg>
